<?xml version="1.0" encoding="UTF-8"?>
<!-- Do not edit this file with editors other than draw.io -->
<!DOCTYPE svg PUBLIC "-//W3C//DTD SVG 1.1//EN" "http://www.w3.org/Graphics/SVG/1.1/DTD/svg11.dtd">
<svg xmlns="http://www.w3.org/2000/svg" xmlns:xlink="http://www.w3.org/1999/xlink" version="1.1" width="361px" height="205px" viewBox="-0.5 -0.5 361 205" content="&lt;mxfile host=&quot;Electron&quot; modified=&quot;2023-06-26T22:36:02.701Z&quot; agent=&quot;Mozilla/5.0 (Windows NT 10.0; Win64; x64) AppleWebKit/537.36 (KHTML, like Gecko) draw.io/21.5.0 Chrome/112.0.5615.204 Electron/24.5.1 Safari/537.36&quot; etag=&quot;aLlZ_474xOCkh-UydogF&quot; version=&quot;21.5.0&quot; type=&quot;device&quot;&gt;&#10;  &lt;diagram name=&quot;Page-1&quot; id=&quot;2jaCigJgctfhIv7uudFX&quot;&gt;&#10;    &lt;mxGraphModel dx=&quot;1335&quot; dy=&quot;884&quot; grid=&quot;1&quot; gridSize=&quot;10&quot; guides=&quot;1&quot; tooltips=&quot;1&quot; connect=&quot;1&quot; arrows=&quot;1&quot; fold=&quot;1&quot; page=&quot;1&quot; pageScale=&quot;1&quot; pageWidth=&quot;850&quot; pageHeight=&quot;1100&quot; math=&quot;0&quot; shadow=&quot;0&quot;&gt;&#10;      &lt;root&gt;&#10;        &lt;mxCell id=&quot;0&quot; /&gt;&#10;        &lt;mxCell id=&quot;1&quot; parent=&quot;0&quot; /&gt;&#10;        &lt;mxCell id=&quot;v9CsV1HpePxFU0PZRrhJ-1&quot; value=&quot;me&quot; style=&quot;shape=umlActor;verticalLabelPosition=bottom;verticalAlign=top;html=1;outlineConnect=0;&quot; vertex=&quot;1&quot; parent=&quot;1&quot;&gt;&#10;          &lt;mxGeometry x=&quot;40&quot; y=&quot;90&quot; width=&quot;40&quot; height=&quot;80&quot; as=&quot;geometry&quot; /&gt;&#10;        &lt;/mxCell&gt;&#10;        &lt;mxCell id=&quot;v9CsV1HpePxFU0PZRrhJ-5&quot; value=&quot;&quot; style=&quot;dashed=0;outlineConnect=0;html=1;align=center;labelPosition=center;verticalLabelPosition=bottom;verticalAlign=top;shape=mxgraph.weblogos.drawio2;fillColor=#1A5BA3&quot; vertex=&quot;1&quot; parent=&quot;1&quot;&gt;&#10;          &lt;mxGeometry x=&quot;200&quot; y=&quot;40&quot; width=&quot;60&quot; height=&quot;80&quot; as=&quot;geometry&quot; /&gt;&#10;        &lt;/mxCell&gt;&#10;        &lt;mxCell id=&quot;v9CsV1HpePxFU0PZRrhJ-7&quot; value=&quot;&quot; style=&quot;endArrow=classic;html=1;rounded=0;&quot; edge=&quot;1&quot; parent=&quot;1&quot; target=&quot;v9CsV1HpePxFU0PZRrhJ-5&quot;&gt;&#10;          &lt;mxGeometry width=&quot;50&quot; height=&quot;50&quot; relative=&quot;1&quot; as=&quot;geometry&quot;&gt;&#10;            &lt;mxPoint x=&quot;90&quot; y=&quot;100&quot; as=&quot;sourcePoint&quot; /&gt;&#10;            &lt;mxPoint x=&quot;201&quot; y=&quot;94.11764705882354&quot; as=&quot;targetPoint&quot; /&gt;&#10;          &lt;/mxGeometry&gt;&#10;        &lt;/mxCell&gt;&#10;        &lt;mxCell id=&quot;v9CsV1HpePxFU0PZRrhJ-15&quot; value=&quot;like&quot; style=&quot;edgeLabel;html=1;align=center;verticalAlign=middle;resizable=0;points=[];fontSize=14;&quot; vertex=&quot;1&quot; connectable=&quot;0&quot; parent=&quot;v9CsV1HpePxFU0PZRrhJ-7&quot;&gt;&#10;          &lt;mxGeometry x=&quot;-0.2409&quot; y=&quot;1&quot; relative=&quot;1&quot; as=&quot;geometry&quot;&gt;&#10;            &lt;mxPoint x=&quot;9&quot; y=&quot;-3&quot; as=&quot;offset&quot; /&gt;&#10;          &lt;/mxGeometry&gt;&#10;        &lt;/mxCell&gt;&#10;        &lt;mxCell id=&quot;v9CsV1HpePxFU0PZRrhJ-9&quot; value=&quot;&amp;lt;b&amp;gt;&amp;lt;font style=&amp;quot;font-size: 14px;&amp;quot;&amp;gt;SVG&amp;lt;/font&amp;gt;&amp;lt;/b&amp;gt;&quot; style=&quot;sketch=0;outlineConnect=0;fontColor=#232F3E;gradientColor=none;fillColor=#D45B07;strokeColor=none;dashed=0;verticalLabelPosition=bottom;verticalAlign=top;align=center;html=1;fontSize=12;fontStyle=0;aspect=fixed;pointerEvents=1;shape=mxgraph.aws4.container_registry_image;&quot; vertex=&quot;1&quot; parent=&quot;1&quot;&gt;&#10;          &lt;mxGeometry x=&quot;200&quot; y=&quot;160&quot; width=&quot;60&quot; height=&quot;60&quot; as=&quot;geometry&quot; /&gt;&#10;        &lt;/mxCell&gt;&#10;        &lt;mxCell id=&quot;v9CsV1HpePxFU0PZRrhJ-12&quot; value=&quot;&quot; style=&quot;endArrow=classic;html=1;rounded=0;&quot; edge=&quot;1&quot; parent=&quot;1&quot; target=&quot;v9CsV1HpePxFU0PZRrhJ-9&quot;&gt;&#10;          &lt;mxGeometry width=&quot;50&quot; height=&quot;50&quot; relative=&quot;1&quot; as=&quot;geometry&quot;&gt;&#10;            &lt;mxPoint x=&quot;90&quot; y=&quot;160&quot; as=&quot;sourcePoint&quot; /&gt;&#10;            &lt;mxPoint x=&quot;280&quot; y=&quot;340&quot; as=&quot;targetPoint&quot; /&gt;&#10;          &lt;/mxGeometry&gt;&#10;        &lt;/mxCell&gt;&#10;        &lt;mxCell id=&quot;v9CsV1HpePxFU0PZRrhJ-13&quot; value=&quot;like&quot; style=&quot;edgeLabel;html=1;align=center;verticalAlign=middle;resizable=0;points=[];fontSize=14;&quot; vertex=&quot;1&quot; connectable=&quot;0&quot; parent=&quot;v9CsV1HpePxFU0PZRrhJ-12&quot;&gt;&#10;          &lt;mxGeometry x=&quot;0.5312&quot; y=&quot;1&quot; relative=&quot;1&quot; as=&quot;geometry&quot;&gt;&#10;            &lt;mxPoint x=&quot;-34&quot; y=&quot;-7&quot; as=&quot;offset&quot; /&gt;&#10;          &lt;/mxGeometry&gt;&#10;        &lt;/mxCell&gt;&#10;        &lt;mxCell id=&quot;v9CsV1HpePxFU0PZRrhJ-19&quot; value=&quot;any platform&quot; style=&quot;shape=callout;whiteSpace=wrap;html=1;perimeter=calloutPerimeter;position2=0.67;direction=south;size=30;position=0.25;base=20;&quot; vertex=&quot;1&quot; parent=&quot;1&quot;&gt;&#10;          &lt;mxGeometry x=&quot;280&quot; y=&quot;50&quot; width=&quot;120&quot; height=&quot;40&quot; as=&quot;geometry&quot; /&gt;&#10;        &lt;/mxCell&gt;&#10;        &lt;mxCell id=&quot;v9CsV1HpePxFU0PZRrhJ-21&quot; value=&quot;any screen&quot; style=&quot;shape=callout;whiteSpace=wrap;html=1;perimeter=calloutPerimeter;position2=0.67;direction=south;size=30;position=0.25;base=20;&quot; vertex=&quot;1&quot; parent=&quot;1&quot;&gt;&#10;          &lt;mxGeometry x=&quot;280&quot; y=&quot;170&quot; width=&quot;120&quot; height=&quot;40&quot; as=&quot;geometry&quot; /&gt;&#10;        &lt;/mxCell&gt;&#10;      &lt;/root&gt;&#10;    &lt;/mxGraphModel&gt;&#10;  &lt;/diagram&gt;&#10;&lt;/mxfile&gt;&#10;"><defs/><g><ellipse cx="20" cy="60" rx="10" ry="10" fill="rgb(255, 255, 255)" stroke="rgb(0, 0, 0)" pointer-events="all"/><path d="M 20 70 L 20 103.33 M 20 76.67 L 0 76.67 M 20 76.67 L 40 76.67 M 20 103.33 L 0 130 M 20 103.33 L 40 130" fill="none" stroke="rgb(0, 0, 0)" stroke-miterlimit="10" pointer-events="all"/><g transform="translate(-0.5 -0.5)"><switch><foreignObject pointer-events="none" width="100%" height="100%" requiredFeatures="http://www.w3.org/TR/SVG11/feature#Extensibility" style="overflow: visible; text-align: left;"><div xmlns="http://www.w3.org/1999/xhtml" style="display: flex; align-items: unsafe flex-start; justify-content: unsafe center; width: 1px; height: 1px; padding-top: 137px; margin-left: 20px;"><div data-drawio-colors="color: rgb(0, 0, 0); " style="box-sizing: border-box; font-size: 0px; text-align: center;"><div style="display: inline-block; font-size: 12px; font-family: Helvetica; color: rgb(0, 0, 0); line-height: 1.2; pointer-events: all; white-space: nowrap;">me</div></div></div></foreignObject><text x="20" y="149" fill="rgb(0, 0, 0)" font-family="Helvetica" font-size="12px" text-anchor="middle">me</text></switch></g><path d="M 219.91 56.99 C 219.91 57.92 218.89 58.79 218.15 58.79 L 161.77 58.79 C 160.99 58.79 160.18 57.92 160.18 57.22 L 160.18 1.93 C 160.18 0.9 160.75 0 161.92 0 L 218.5 0.04 C 219.35 0.04 219.9 0.81 219.91 1.81 Z" fill="#f08707" stroke="none" pointer-events="all"/><path d="M 182.26 58.79 L 173.05 45.17 L 194.42 13.83 L 196.87 13.4 L 219.91 36.56 L 219.91 57.04 C 219.91 57.79 218.95 58.88 218.2 58.79 Z" fill="#db6112" stroke="none" pointer-events="all"/><path d="M 174.05 45.32 C 172.6 45.32 171.91 44.15 171.91 43.18 L 171.91 35.47 C 171.91 34.54 172.63 33.39 173.64 33.39 L 179.81 33.39 L 185.3 24.42 L 184.57 24.42 C 184.14 24.42 182.84 23.59 182.84 22.7 L 182.84 14.45 C 182.84 13.53 184.01 12.35 184.88 12.35 L 194.84 12.35 C 195.74 12.35 197.22 12.85 197.22 14.54 L 197.22 22.46 C 197.22 23.39 196.37 24.42 195.51 24.42 L 194.8 24.42 L 200.3 33.39 L 206.17 33.39 C 207.56 33.39 208.23 34.14 208.23 35.26 L 208.23 43.19 C 208.23 44.39 207.19 45.32 206.15 45.32 L 196.26 45.32 C 194.99 45.32 193.9 44.52 193.9 43.29 L 193.9 34.96 C 194.04 34.11 194.85 33.39 195.8 33.39 L 197.66 33.39 L 192.36 24.42 L 187.8 24.42 L 182.54 33.39 L 184.56 33.39 C 185.45 33.39 186.22 34.24 186.22 35.23 L 186.22 43.67 C 186.22 44.37 185.4 45.32 184.47 45.32 Z" fill="#ffffff" stroke="none" pointer-events="all"/><rect x="160" y="0" width="0" height="0" fill="none" stroke="rgb(0, 0, 0)" pointer-events="all"/><path d="M 202.51 76.82 C 203.41 76.82 204.05 77.64 204.05 78.36 C 204.03 79.36 203.39 80 202.51 79.98 C 201.51 79.97 200.79 79.35 200.79 78.36 C 200.79 77.5 201.48 76.82 202.51 76.82 Z M 186.2 70.77 L 188.89 70.77 L 190.63 76.94 L 192.22 70.77 L 194.47 70.77 L 196.21 76.75 L 197.95 70.77 L 200.48 70.77 L 197.71 79.8 L 194.8 79.8 L 193.3 74.34 L 191.86 79.8 L 188.86 79.8 Z M 182.71 76.13 C 182.02 75.96 181.76 75.82 181 75.92 C 180.22 76.04 179.8 76.39 179.73 77.07 C 179.73 77.63 180.34 78.13 181.14 78.12 C 181.75 78.08 182.24 77.72 182.71 77.16 Z M 177.66 72.14 C 178.14 71.29 178.63 70.86 179.9 70.56 C 181.41 70.29 182.59 70.48 183.7 70.85 C 185.03 71.43 185.15 72.73 185.15 73.71 L 185.15 78.27 C 185.16 78.93 185.1 79.35 185.34 79.82 L 183.31 79.87 C 183.1 79.57 183.17 79.21 183.2 78.61 C 182.63 79.34 181.71 79.69 181.15 79.81 C 179.44 79.95 179.2 79.91 178.27 79.45 C 177.68 79.15 177.35 78.36 177.27 77.31 C 177.28 75.95 178.2 74.78 179.6 74.47 C 180.68 74.25 181.34 74.23 182.79 74.37 L 182.77 73.42 C 182.76 72.95 182.02 72.4 181.31 72.41 C 179.76 72.44 179.07 72.84 178.62 73.34 Z M 170.87 70.83 L 172.97 70.83 L 172.98 71.97 C 173.22 71.61 173.79 71.09 174.35 70.87 C 175.05 70.66 175.71 70.81 176.42 70.95 L 176.36 73.1 C 175.98 72.85 175.62 72.67 175.03 72.76 C 174.17 72.98 173.38 73.86 173.38 74.41 L 173.38 79.8 L 170.87 79.8 Z M 166.15 74.05 C 165.88 73.55 165.26 72.57 164.35 72.53 C 163.8 72.53 163.11 73.16 162.84 73.7 C 162.59 74.34 162.57 75.46 162.73 76.61 C 163.01 77.54 163.4 77.84 164.27 77.94 C 165.24 78.04 165.71 77.16 166.1 76.6 Z M 166.62 79.8 L 166.48 78.37 C 165.75 79.41 165.43 79.84 164.04 79.89 C 162.4 79.87 161.46 79.32 160.65 78.39 C 160.09 77.13 160 75.21 160.18 73.72 C 160.55 72 161.22 71.22 163.07 70.54 C 164.01 70.26 165.29 70.6 166.1 71.48 L 166.1 66.85 L 168.63 66.85 L 168.63 79.8 Z" fill="#1a5ba3" stroke="none" pointer-events="all"/><path d="M 215.36 78.05 C 216.89 78.05 217.41 76.56 217.41 75.17 C 217.41 73.39 216.61 72.45 215.34 72.45 C 214.19 72.45 213.29 73.4 213.29 75.19 C 213.29 76.75 214.02 78.05 215.36 78.05 Z M 215.32 80 C 212.03 80 210.65 77.34 210.65 75.64 C 210.65 72.33 212.78 70.46 215.13 70.46 C 217.51 70.46 220 71.62 220 75.26 C 220 77.92 218.2 80 215.32 80 Z M 206.37 79.81 L 206.37 70.78 L 208.97 70.78 L 208.97 79.81 Z M 206.17 68.33 C 206.17 67.59 206.91 66.95 207.6 66.95 C 208.54 66.95 208.98 67.64 208.98 68.33 C 208.98 69.18 208.4 69.66 207.62 69.66 C 206.85 69.66 206.17 68.97 206.17 68.33 Z" fill="#f08707" stroke="none" pointer-events="all"/><path d="M 50 60 L 153.7 45.19" fill="none" stroke="rgb(0, 0, 0)" stroke-miterlimit="10" pointer-events="stroke"/><path d="M 158.89 44.44 L 152.46 48.9 L 153.7 45.19 L 151.47 41.97 Z" fill="rgb(0, 0, 0)" stroke="rgb(0, 0, 0)" stroke-miterlimit="10" pointer-events="all"/><g transform="translate(-0.5 -0.5)"><switch><foreignObject pointer-events="none" width="100%" height="100%" requiredFeatures="http://www.w3.org/TR/SVG11/feature#Extensibility" style="overflow: visible; text-align: left;"><div xmlns="http://www.w3.org/1999/xhtml" style="display: flex; align-items: unsafe center; justify-content: unsafe center; width: 1px; height: 1px; padding-top: 51px; margin-left: 101px;"><div data-drawio-colors="color: rgb(0, 0, 0); background-color: rgb(255, 255, 255); " style="box-sizing: border-box; font-size: 0px; text-align: center;"><div style="display: inline-block; font-size: 14px; font-family: Helvetica; color: rgb(0, 0, 0); line-height: 1.2; pointer-events: all; background-color: rgb(255, 255, 255); white-space: nowrap;">like</div></div></div></foreignObject><text x="101" y="55" fill="rgb(0, 0, 0)" font-family="Helvetica" font-size="14px" text-anchor="middle">like</text></switch></g><rect x="160" y="120" width="60" height="60" fill="none" stroke="none" pointer-events="all"/><path d="M 184.55 137.73 C 186.8 137.73 188.64 139.56 188.64 141.82 C 188.64 144.07 186.8 145.91 184.55 145.91 C 182.29 145.91 180.45 144.07 180.45 141.82 C 180.45 139.56 182.29 137.73 184.55 137.73 Z M 184.55 148.64 C 188.31 148.64 191.36 145.58 191.36 141.82 C 191.36 138.06 188.31 135 184.55 135 C 180.79 135 177.73 138.06 177.73 141.82 C 177.73 145.58 180.79 148.64 184.55 148.64 Z M 162.73 177.27 L 162.73 164.2 L 173.64 153.29 L 194.49 174.15 L 196.42 172.22 L 185.79 161.59 L 200.91 146.47 L 217.27 162.84 L 217.27 177.27 Z M 217.27 122.73 L 217.27 158.98 L 201.87 143.58 C 201.34 143.05 200.48 143.05 199.94 143.58 L 183.86 159.66 L 174.6 150.4 C 174.07 149.87 173.21 149.87 172.67 150.4 L 162.73 160.34 L 162.73 122.73 Z M 218.64 120 L 161.36 120 C 160.61 120 160 120.61 160 121.36 L 160 178.64 C 160 179.39 160.61 180 161.36 180 L 218.64 180 C 219.39 180 220 179.39 220 178.64 L 220 121.36 C 220 120.61 219.39 120 218.64 120 Z" fill="#d45b07" stroke="none" pointer-events="all"/><g transform="translate(-0.5 -0.5)"><switch><foreignObject pointer-events="none" width="100%" height="100%" requiredFeatures="http://www.w3.org/TR/SVG11/feature#Extensibility" style="overflow: visible; text-align: left;"><div xmlns="http://www.w3.org/1999/xhtml" style="display: flex; align-items: unsafe flex-start; justify-content: unsafe center; width: 1px; height: 1px; padding-top: 187px; margin-left: 190px;"><div data-drawio-colors="color: #232F3E; " style="box-sizing: border-box; font-size: 0px; text-align: center;"><div style="display: inline-block; font-size: 12px; font-family: Helvetica; color: rgb(35, 47, 62); line-height: 1.2; pointer-events: all; white-space: nowrap;"><b><font style="font-size: 14px;">SVG</font></b></div></div></div></foreignObject><text x="190" y="199" fill="#232F3E" font-family="Helvetica" font-size="12px" text-anchor="middle">SVG</text></switch></g><path d="M 50 120 L 153.77 142.24" fill="none" stroke="rgb(0, 0, 0)" stroke-miterlimit="10" pointer-events="stroke"/><path d="M 158.91 143.34 L 151.33 145.29 L 153.77 142.24 L 152.8 138.45 Z" fill="rgb(0, 0, 0)" stroke="rgb(0, 0, 0)" stroke-miterlimit="10" pointer-events="all"/><g transform="translate(-0.5 -0.5)"><switch><foreignObject pointer-events="none" width="100%" height="100%" requiredFeatures="http://www.w3.org/TR/SVG11/feature#Extensibility" style="overflow: visible; text-align: left;"><div xmlns="http://www.w3.org/1999/xhtml" style="display: flex; align-items: unsafe center; justify-content: unsafe center; width: 1px; height: 1px; padding-top: 131px; margin-left: 101px;"><div data-drawio-colors="color: rgb(0, 0, 0); background-color: rgb(255, 255, 255); " style="box-sizing: border-box; font-size: 0px; text-align: center;"><div style="display: inline-block; font-size: 14px; font-family: Helvetica; color: rgb(0, 0, 0); line-height: 1.2; pointer-events: all; background-color: rgb(255, 255, 255); white-space: nowrap;">like</div></div></div></foreignObject><text x="101" y="135" fill="rgb(0, 0, 0)" font-family="Helvetica" font-size="14px" text-anchor="middle">like</text></switch></g><path d="M 280 -30 L 320 -30 L 320 60 L 310 60 L 306.8 90 L 290 60 L 280 60 Z" fill="rgb(255, 255, 255)" stroke="rgb(0, 0, 0)" stroke-miterlimit="10" transform="rotate(90,300,30)" pointer-events="all"/><g transform="translate(-0.5 -0.5)"><switch><foreignObject pointer-events="none" width="100%" height="100%" requiredFeatures="http://www.w3.org/TR/SVG11/feature#Extensibility" style="overflow: visible; text-align: left;"><div xmlns="http://www.w3.org/1999/xhtml" style="display: flex; align-items: unsafe center; justify-content: unsafe center; width: 88px; height: 1px; padding-top: 30px; margin-left: 271px;"><div data-drawio-colors="color: rgb(0, 0, 0); " style="box-sizing: border-box; font-size: 0px; text-align: center;"><div style="display: inline-block; font-size: 12px; font-family: Helvetica; color: rgb(0, 0, 0); line-height: 1.2; pointer-events: all; white-space: normal; overflow-wrap: normal;">any platform</div></div></div></foreignObject><text x="315" y="34" fill="rgb(0, 0, 0)" font-family="Helvetica" font-size="12px" text-anchor="middle">any platform</text></switch></g><path d="M 280 90 L 320 90 L 320 180 L 310 180 L 306.8 210 L 290 180 L 280 180 Z" fill="rgb(255, 255, 255)" stroke="rgb(0, 0, 0)" stroke-miterlimit="10" transform="rotate(90,300,150)" pointer-events="all"/><g transform="translate(-0.5 -0.5)"><switch><foreignObject pointer-events="none" width="100%" height="100%" requiredFeatures="http://www.w3.org/TR/SVG11/feature#Extensibility" style="overflow: visible; text-align: left;"><div xmlns="http://www.w3.org/1999/xhtml" style="display: flex; align-items: unsafe center; justify-content: unsafe center; width: 88px; height: 1px; padding-top: 150px; margin-left: 271px;"><div data-drawio-colors="color: rgb(0, 0, 0); " style="box-sizing: border-box; font-size: 0px; text-align: center;"><div style="display: inline-block; font-size: 12px; font-family: Helvetica; color: rgb(0, 0, 0); line-height: 1.2; pointer-events: all; white-space: normal; overflow-wrap: normal;">any screen</div></div></div></foreignObject><text x="315" y="154" fill="rgb(0, 0, 0)" font-family="Helvetica" font-size="12px" text-anchor="middle">any screen</text></switch></g></g><switch><g requiredFeatures="http://www.w3.org/TR/SVG11/feature#Extensibility"/><a transform="translate(0,-5)" xlink:href="https://www.drawio.com/doc/faq/svg-export-text-problems" target="_blank"><text text-anchor="middle" font-size="10px" x="50%" y="100%">Text is not SVG - cannot display</text></a></switch></svg>